<?xml version="1.0" standalone="no"?>
<!DOCTYPE svg PUBLIC "-//W3C//DTD SVG 20010904//EN"
 "http://www.w3.org/TR/2001/REC-SVG-20010904/DTD/svg10.dtd">
<svg version="1.0" xmlns="http://www.w3.org/2000/svg"
 width="500.000000pt" height="500.000000pt" viewBox="0 0 500.000000 500.000000"
 preserveAspectRatio="xMidYMid meet">

<g transform="translate(0.000000,500.000000) scale(0.100000,-0.100000)"
fill="#000000" stroke="none">
<path d="M0 2500 l0 -2500 2500 0 2500 0 0 2500 0 2500 -2500 0 -2500 0 0
-2500z m2413 1254 c160 -39 265 -156 270 -304 l2 -59 130 6 c113 5 141 3 215
-16 186 -47 298 -162 337 -345 38 -178 -30 -365 -173 -475 -95 -72 -257 -111
-394 -94 -41 5 -101 7 -132 5 l-58 -4 0 -86 c1 -48 5 -134 10 -192 9 -118 23
-140 86 -140 l34 0 0 -55 0 -55 -230 0 -230 0 0 55 0 55 33 0 c18 0 41 6 50
13 27 19 37 106 37 307 l0 187 -126 149 c-69 82 -169 200 -222 262 l-96 113
-45 -3 -46 -3 0 -205 c0 -270 8 -290 114 -290 l51 0 0 -55 0 -55 -261 0 -260
0 3 53 3 52 45 3 c73 4 87 10 104 46 14 30 16 91 16 495 0 491 -2 515 -48 540
-12 6 -43 11 -71 11 l-51 0 0 48 c0 27 2 51 4 53 2 2 190 3 418 2 343 -2 424
-5 481 -19z"/>
<path d="M1595 3711 c61 -11 85 -28 108 -79 22 -46 22 -57 22 -517 l0 -470
-23 -47 c-23 -46 -53 -66 -127 -81 -11 -3 79 -5 200 -5 198 0 215 1 168 12
-63 16 -81 29 -104 81 -16 35 -19 69 -19 278 l0 237 78 0 77 0 199 -235 c109
-129 204 -239 212 -246 12 -10 14 -1 14 55 l0 66 -152 178 -151 177 141 5
c142 6 180 16 155 41 -8 8 -17 8 -31 0 -34 -18 -190 -30 -367 -28 l-170 2 -3
283 -2 282 238 0 c263 0 303 -6 385 -60 61 -41 97 -112 101 -201 2 -35 6 -63
10 -61 3 1 24 2 46 2 40 0 40 0 40 38 0 21 -7 63 -16 93 -22 72 -96 147 -179
180 -59 24 -64 24 -475 25 -228 1 -397 -1 -375 -5z"/>
<path d="M1865 3649 c-3 -13 -4 -121 -3 -239 l3 -215 200 -3 c194 -3 297 7
311 29 11 19 -18 39 -57 39 l-39 0 0 55 0 55 110 0 110 0 0 65 c0 78 -23 131
-73 169 -67 51 -106 58 -339 64 l-217 4 -6 -23z"/>
<path d="M2680 3329 c-41 -5 -136 -10 -210 -13 -168 -6 -162 -5 -120 -19 48
-17 77 -64 85 -140 3 -34 5 -287 3 -562 -3 -571 -2 -560 -80 -595 l-43 -19
185 0 185 0 -42 19 c-73 33 -78 50 -81 324 l-4 239 24 -7 c154 -44 255 -56
362 -44 188 23 333 158 368 346 24 130 -28 291 -120 373 -111 98 -258 126
-512 98z m245 -23 c110 -29 196 -100 241 -199 52 -115 44 -292 -18 -397 -52
-87 -140 -151 -233 -170 -71 -15 -194 -7 -286 18 l-64 17 0 355 0 355 65 17
c79 20 227 23 295 4z"/>
<path d="M2705 3276 c-5 -2 -22 -7 -37 -10 -54 -12 -58 -36 -58 -350 0 -326
-10 -296 101 -315 150 -25 261 -6 331 57 86 78 123 175 116 306 -8 139 -66
230 -180 281 -53 24 -79 29 -163 32 -55 1 -104 1 -110 -1z"/>
<path d="M2277 3081 l-79 -6 101 -118 101 -118 0 125 c0 125 0 126 -22 124
-13 -1 -58 -4 -101 -7z"/>
</g>
</svg>
